# AST/ASF file generated using VICON BodyLanguage
# -----------------------------------------------
:version 1.10
:name VICON
:units
  mass 1.0
  length 0.45
  angle deg
:documentation
   .ast/.asf automatically generated from VICON data using
   VICON BodyBuilder and BodyLanguage model FoxedUp or BRILLIANT.MOD
:root
   order TX TY TZ RX RY RZ
   axis XYZ
   position 0 0 0  
   orientation 0 0 0 
:bonedata
  begin
     id 1 
     name lhipjoint
     direction 0.521452 -0.77106 0.36545 
     length 2.0933 
     axis 0 0 0  XYZ
  end
  begin
     id 2 
     name lfemur
     direction 0.34202 -0.939693 0  
     length 6.83441  
     axis 0 0 20  XYZ
    dof rx ry rz
    limits (-160.0 20.0)
           (-70.0 70.0)
           (-60.0 70.0)
  end
  begin
     id 3 
     name ltibia
     direction 0.34202 -0.939693 0   
     length 7.28749   
     axis 0 0 20   XYZ
    dof rx
    limits (-10.0 170.0)
  end
  begin
     id 4 
     name lfoot
     direction 0.100608 -0.276418 0.955757   
     length 1.52195   
     axis -90 7.62852e-016 20   XYZ
    dof rx rz
    limits (-45.0 90.0)
           (-70.0 20.0)
  end
  begin
     id 5 
     name ltoes
     direction 1.53558e-011 -4.21907e-011 1   
     length 0.770459   
     axis -90 7.62852e-016 20   XYZ
    dof rx
    limits (-90.0 20.0)
  end
  begin
     id 6 
     name rhipjoint
     direction -0.488071 -0.788702 0.373812   
     length 2.04648  
     axis 0 0 0  XYZ 
  end
  begin
     id 7 
     name rfemur
     direction -0.34202 -0.939693 0   
     length 6.92583   
     axis 0 0 -20   XYZ
    dof rx ry rz
    limits (-160.0 20.0)
           (-70.0 70.0)
           (-70.0 60.0)
  end
  begin
     id 8 
     name rtibia
     direction -0.34202 -0.939693 0   
     length 7.41043   
     axis 0 0 -20   XYZ
    dof rx
    limits (-10.0 170.0)
 end
 begin
     id 9 
     name rfoot
     direction -0.0784433 -0.215521 0.973343   
     length 1.67708  
     axis -90 -7.62852e-016 -20   XYZ
    dof rx rz
    limits (-45.0 90.0)
           (-20.0 70.0)
  end
  begin
     id 10 
     name rtoes
     direction -1.53551e-011 -4.21842e-011 1   
     length 0.849787   
     axis -90 -7.62852e-016 -20   XYZ
    dof rx
    limits (-90.0 20.0)
  end
  begin
     id 11 
     name lowerback
     direction -0.0122332 0.997575 -0.0685192   
     length 1.98724   
     axis 0 0 0   XYZ
    dof rx ry rz
    limits (-20.0 45.0)
           (-30.0 30.0)
           (-30.0 30.0)
  end
  begin
     id 12 
     name upperback
     direction 0.0182347 0.999724 -0.0148421   
     length 1.99029   
     axis 0 0 0   XYZ
    dof rx ry rz
    limits (-20.0 45.0)
           (-30.0 30.0)
           (-30.0 30.0)
  end
  begin
     id 13 
     name thorax
     direction 0.0242908 0.99956 0.0170184   
     length 1.99573   
     axis 0 0 0   XYZ
    dof rx ry rz
    limits (-20.0 45.0)
           (-30.0 30.0)
           (-30.0 30.0)
  end
  begin
     id 14 
     name lowerneck
     direction 0.0654488 0.985533 0.156338   
     length 1.4285   
     axis 0 0 0   XYZ
    dof rx ry rz
    limits (-20.0 45.0)
           (-30.0 30.0)
           (-30.0 30.0)
  end
  begin
     id 15 
     name upperneck
     direction -0.02953 0.998556 -0.0448842   
     length 1.44709   
     axis 0 0 0   XYZ
    dof rx ry rz
    limits (-20.0 45.0)
           (-30.0 30.0)
           (-30.0 30.0)
  end
  begin
     id 16
     name head
     direction -0.0155588 0.999386 -0.0314063  
     length 1.44689  
     axis 0 0 0   XYZ
    dof rx ry rz
    limits (-20.0 45.0)
           (-30.0 30.0)
           (-30.0 30.0)
  end
  begin
     id 17 
     name lclavicle
     direction 0.968229 0.236071 -0.0824755  
     length 3.60593  
     axis 0 0 0   XYZ
    dof ry rz
    limits (-20.0 10.0)
           (0.0 20.0)
  end
  begin
     id 18 
     name lhumerus
     direction 1 -4.48968e-011 7.8138e-029   
     length 5.06035   
     axis 180 -30 -90   XYZ
    dof rx ry rz
    limits (-60.0 90.0)
           (-90.0 90.0)
           (-90.0 90.0)
  end
  begin
     id 19
     name lradius
     direction 1 -4.48967e-011 9.02887e-028   
     length 3.1478   
     axis 180 -30 -90   XYZ
    dof rx
    limits (-10.0 170.0)
  end
  begin
     id 20
     name lwrist
     direction 1 -4.48961e-011 7.20928e-028   
     length 1.5739   
     axis -5.52449e-016 90 90   XYZ
    dof ry
    limits (-180.0 0.0)
 end
  begin
     id 21 
     name lhand
     direction 1 -4.48972e-011 1.44186e-027   
     length 0.606747   
     axis -9.20027e-016 90 90   XYZ
    dof rx rz
    limits (-90.0 90.0)
           (-45.0 45.0)
  end
  begin
     id 22 
     name lfingers
     direction 1 -4.48943e-011 2.88371e-027   
     length 0.489175   
     axis -1.84005e-015 90 90   XYZ
    dof rx
    limits (0.0 90.0)
  end
  begin
     id 23
     name lthumb
     direction 0.707107 -6.34917e-011 0.707107   
     length 0.70236   
     axis -90 45 2.85299e-015   XYZ
    dof rx rz
    limits (-45.0 45.0)
           (-45.0 45.0)
  end
  begin
     id 24 
     name rclavicle
     direction -0.978165 0.207816 0.0022268   
     length 3.35425  
     axis 0 0 0   XYZ 
    dof ry rz
    limits (-10.0 20.0)
           (-20.0 0.0)
  end
  begin
     id 25 
     name rhumerus
     direction -1 -4.48964e-011 -4.02159e-027  
     length 5.12273   
     axis 180 30 90   XYZ
    dof rx ry rz
    limits (-90.0 60.0)
           (-90.0 90.0)
           (-90.0 90.0)
  end
  begin
     id 26 
     name rradius
     direction -1 -4.48966e-011 1.62746e-027   
     length 3.422   
     axis 180 30 90   XYZ
    dof rx
    limits (-10.0 170.0)
  end
  begin
     id 27 
     name rwrist
     direction -1 -4.4896e-011 7.20928e-028   
     length 1.711   
     axis -5.52449e-016 -90 -90   XYZ
    dof ry
    limits (-180.0 0.0)
  end
  begin
     id 28
     name rhand
     direction -1 -4.48979e-011 1.44186e-027   
     length 0.704599   
     axis -9.20027e-016 -90 -90   XYZ
    dof rx rz
    limits (-90.0 90.0)
           (-45.0 45.0)
  end
  begin
     id 29
     name rfingers
     direction -1 -4.48962e-011 2.88371e-027   
     length 0.568066   
     axis -1.84005e-015 -90 -90   XYZ
    dof rx
    limits (0.0 90.0)
  end
  begin
     id 30
     name rthumb
     direction -0.707107 -6.34949e-011 0.707107   
     length 0.815633   
     axis -90 -45 -2.85299e-015   XYZ
    dof rx rz
    limits (-45.0 45.0)
           (-45.0 45.0)
  end
:hierarchy
  begin
    root lhipjoint rhipjoint lowerback
    lhipjoint lfemur
    lfemur ltibia
    ltibia lfoot
    lfoot ltoes
    rhipjoint rfemur
    rfemur rtibia
    rtibia rfoot
    rfoot rtoes
    lowerback upperback
    upperback thorax
    thorax lowerneck lclavicle rclavicle
    lowerneck upperneck
    upperneck head
    lclavicle lhumerus
    lhumerus lradius
    lradius lwrist
    lwrist lhand lthumb
    lhand lfingers
    rclavicle rhumerus
    rhumerus rradius
    rradius rwrist
    rwrist rhand rthumb
    rhand rfingers
  end

#!OML:ASF E:\id_vita\Project 1\Capture day 1\Session 1\Male1.ASF
:FULLY-SPECIFIED
:DEGREES
1
root -7.88685 27.3873 -0.280357 -155.958 88.6946 -160.869
lowerback -5.21587 -0.479683 -2.1174
upperback 0.603519 -0.518668 0.452475
thorax 3.5718 -0.303818 1.61277
lowerneck -9.56468 0.228274 2.25313
upperneck 18.5869 0.404593 -1.24833
head 7.27699 0.33461 -0.732619
rclavicle -4.76462e-015 -9.14409e-015
rhumerus -30.398 -9.9225 -83.2752
rradius 21.6625
rwrist 4.3783
rhand -19.4651 44.5222
rfingers 7.12502
rthumb 6.85619 14.6533
lclavicle -4.76462e-015 -9.14409e-015
lhumerus -23.0642 19.4443 78.3556
lradius 16.9256
lwrist -10.3465
lhand -13.8704 42.433
lfingers 7.12502
lthumb 12.254 72.054
rfemur -8.54118 3.37195 17.9671
rtibia 24.5869
rfoot -17.2617 -14.2738
rtoes -6.65844
lfemur -10.2382 -0.0010232 -17.5288
ltibia 25.0399
lfoot -22.8882 2.2394
ltoes -5.31205
2
root -7.88688 27.3874 -0.278348 -164.6 88.6565 -169.508
lowerback -5.28953 -0.527707 -2.30807
upperback 0.645103 -0.566892 0.412273
thorax 3.66019 -0.332609 1.67375
lowerneck -9.50875 0.248121 2.23262
upperneck 18.4607 0.436327 -1.26772
head 7.22652 0.344951 -0.732512
rclavicle -5.92006e-015 -4.96962e-016
rhumerus -30.3761 -10.0206 -83.1872
rradius 21.5254
rwrist 4.71651
rhand -19.5062 44.8871
rfingers 7.12502
rthumb 6.81652 15.0169
lclavicle -5.92006e-015 -4.96962e-016
lhumerus -22.6807 19.6188 78.4132
lradius 16.6915
lwrist -10.9739
lhand -13.7728 42.1335
lfingers 7.12502
lthumb 12.3482 71.7488
rfemur -8.54888 3.48145 17.7739
rtibia 24.6962
rfoot -17.4775 -14.2427
rtoes -5.07404
lfemur -10.1963 -0.0562376 -17.7068
ltibia 24.9068
lfoot -22.7826 2.13613
ltoes -4.98839
3
root -7.89152 27.3911 -0.276684 -164.506 88.8699 -169.487
lowerback -5.35347 -0.484301 -2.34739
upperback 0.641623 -0.50402 0.391417
thorax 3.68988 -0.302214 1.67927
lowerneck -9.68845 0.277397 2.25473
upperneck 18.7193 0.488716 -1.33436
head 7.34388 0.368132 -0.75344
rclavicle 3.44146e-015 -3.97569e-015
rhumerus -30.3791 -10.2057 -83.1039
rradius 21.3012
rwrist 5.19631
rhand -20.0741 45.1251
rfingers 7.12502
rthumb 6.2683 15.2379
lclavicle 3.44146e-015 -3.97569e-015
lhumerus -22.3597 19.3448 78.5724
lradius 16.6355
lwrist -11.1139
lhand -13.804 42.2505
lfingers 7.12502
lthumb 12.3181 71.8677
rfemur -8.66428 3.63901 17.682
rtibia 24.69
rfoot -17.6795 -13.9145
rtoes -3.43333
lfemur -10.277 0.00428386 -17.7593
ltibia 24.9066
lfoot -22.8201 2.14472
ltoes -4.49072
4
root -7.89601 27.3912 -0.276461 -161.2 88.9177 -166.174
lowerback -5.30829 -0.468034 -2.25286
upperback 0.611701 -0.488741 0.360785
thorax 3.63148 -0.291385 1.59614
lowerneck -9.75282 0.272365 2.27659
upperneck 18.9593 0.480874 -1.31007
head 7.43371 0.371804 -0.750116
rclavicle -7.64079e-016 5.1684e-015
rhumerus -30.4407 -10.4772 -83.0519
rradius 21.1949
rwrist 5.46794
rhand -20.6836 44.9782
rfingers 7.12502
rthumb 5.67979 15.0743
lclavicle -7.64079e-016 5.1684e-015
lhumerus -22.178 18.5424 78.7756
lradius 16.7396
lwrist -10.7892
lhand -13.9374 42.6617
lfingers 7.12502
lthumb 12.1895 72.2865
rfemur -8.70047 3.54562 17.7417
rtibia 24.681
rfoot -17.4888 -13.9676
rtoes -5.11308
lfemur -10.2838 0.231166 -17.7071
ltibia 24.9132
lfoot -22.8068 2.03341
ltoes -4.86111
5
root -7.89772 27.3892 -0.275736 -154.248 88.8476 -159.161
lowerback -5.24133 -0.45533 -2.07847
upperback 0.593955 -0.485364 0.374759
thorax 3.57367 -0.2856 1.51331
lowerneck -9.69549 0.245855 2.23349
upperneck 18.9651 0.439625 -1.23246
head 7.42437 0.356958 -0.721348
rclavicle 2.99419e-015 -2.38542e-015
rhumerus -30.566 -10.6759 -82.9951
rradius 21.2173
rwrist 5.64672
rhand -21.0806 44.5271
rfingers 7.12502
rthumb 5.2965 14.6133
lclavicle 2.99419e-015 -2.38542e-015
lhumerus -22.0191 18.3214 78.8596
lradius 16.7046
lwrist -11.035
lhand -14.0224 42.5577
lfingers 7.12502
lthumb 12.1075 72.1874
rfemur -8.63053 3.47295 17.9359
rtibia 24.6404
rfoot -17.2471 -14.1742
rtoes -6.72824
lfemur -10.2529 0.313366 -17.5408
ltibia 24.9526
lfoot -22.8069 2.03992
ltoes -5.25698
6
root -7.89933 27.3888 -0.273821 -147.635 88.8252 -152.536
lowerback -5.24456 -0.455965 -1.93482
upperback 0.600857 -0.496246 0.398319
thorax 3.58191 -0.288569 1.45598
lowerneck -9.75353 0.250191 2.20111
upperneck 19.0088 0.450178 -1.23139
head 7.44917 0.359837 -0.71469
rclavicle 3.23025e-015 -3.47873e-015
rhumerus -30.6988 -10.1754 -83.2254
rradius 21.6042
rwrist 4.92111
rhand -21.1483 44.2257
rfingers 7.12502
rthumb 5.23114 14.3103
lclavicle 3.23025e-015 -3.47873e-015
lhumerus -21.827 17.8132 79.0576
lradius 16.7639
lwrist -10.8173
lhand -14.0696 42.3132
lfingers 7.12502
lthumb 12.062 71.9456
rfemur -8.6095 3.45668 18.0874
rtibia 24.5842
rfoot -17.2153 -14.1952
rtoes -6.96012
lfemur -10.2886 0.130957 -17.3908
ltibia 25.0182
lfoot -22.8436 2.21262
ltoes -4.57048
7
root -7.90242 27.3888 -0.273136 -143.195 88.9225 -148.104
lowerback -5.23758 -0.434655 -1.89341
upperback 0.60217 -0.470199 0.385857
thorax 3.57779 -0.274647 1.42206
lowerneck -9.83949 0.21372 2.33064
upperneck 19.1481 0.396601 -1.32214
head 7.50953 0.336663 -0.77116
rclavicle -9.56651e-016 1.49089e-015
rhumerus -30.8456 -9.75146 -83.4082
rradius 21.8253
rwrist 4.34011
rhand -21.0896 44.3871
rfingers 7.12502
rthumb 5.28781 14.4731
lclavicle -9.56651e-016 1.49089e-015
lhumerus -21.6493 16.5459 79.4136
lradius 17.0113
lwrist -9.8338
lhand -14.0524 42.5649
lfingers 7.12502
lthumb 12.0785 72.1963
rfemur -8.63371 3.41048 18.0981
rtibia 24.5232
rfoot -17.1878 -14.0804
rtoes -7.35153
lfemur -10.3318 -0.0660821 -17.3701
ltibia 25.0786
lfoot -22.9054 2.44468
ltoes -3.99902
8
root -7.90598 27.3889 -0.273255 -131.804 89.0557 -136.712
lowerback -5.21869 -0.349532 -1.79414
upperback 0.595673 -0.363397 0.383464
thorax 3.55548 -0.219297 1.37277
lowerneck -9.90821 0.23563 2.30688
upperneck 19.1196 0.428081 -1.32965
head 7.51311 0.347897 -0.76674
rclavicle -1.63376e-015 1.78906e-015
rhumerus -30.9301 -9.85084 -83.3907
rradius 21.7541
rwrist 4.36044
rhand -21.1294 44.6559
rfingers 7.12502
rthumb 5.24944 14.7409
lclavicle -1.63376e-015 1.78906e-015
lhumerus -21.444 15.7617 79.6691
lradius 17.1131
lwrist -9.42882
lhand -14.0481 43.0025
lfingers 7.12502
lthumb 12.0827 72.6336
rfemur -8.66848 3.44205 18.1466
rtibia 24.4821
rfoot -17.1415 -13.8796
rtoes -7.30682
lfemur -10.3221 -0.192874 -17.319
ltibia 25.126
lfoot -23.0087 2.76531
ltoes -4.14385
9
root -7.90474 27.3889 -0.272995 -137.808 88.8892 -142.675
lowerback -5.2362 -0.390614 -1.72656
upperback 0.612147 -0.421626 0.368851
thorax 3.58389 -0.247167 1.3148
lowerneck -9.77662 0.144251 2.42685
upperneck 19.0075 0.285108 -1.34643
head 7.45016 0.286089 -0.805258
rclavicle -2.41026e-015 1.49089e-015
rhumerus -30.9562 -10.1548 -83.3013
rradius 21.5825
rwrist 4.61353
rhand -21.2893 44.7473
rfingers 7.12502
rthumb 5.09502 14.8285
lclavicle -2.41026e-015 1.49089e-015
lhumerus -21.2216 15.532 79.7945
lradius 17.0463
lwrist -9.56679
lhand -14.0559 42.995
lfingers 7.12502
lthumb 12.0752 72.6266
rfemur -8.55604 3.4364 18.2099
rtibia 24.4535
rfoot -17.1417 -13.9962
rtoes -6.90726
lfemur -10.2977 -0.145492 -17.2619
ltibia 25.1491
lfoot -22.9907 2.53531
ltoes -4.2549
10
root -7.90778 27.3855 -0.273122 -135.832 88.8976 -140.51
lowerback -5.07163 -0.404067 -1.74852
upperback 0.665242 -0.443384 0.433334
thorax 3.54762 -0.259289 1.39253
lowerneck -9.88197 0.26664 2.08966
upperneck 19.0594 0.491396 -1.24372
head 7.48922 0.369749 -0.696382
rclavicle 1.1865e-015 6.75868e-015
rhumerus -30.9699 -10.0536 -83.2119
rradius 21.5693
rwrist 4.59051
rhand -21.0038 44.8343
rfingers 7.12502
rthumb 5.37071 14.9224
lclavicle 1.1865e-015 6.75868e-015
lhumerus -21.0881 15.514 79.9453
lradius 17.0342
lwrist -9.62487
lhand -14.0953 42.5473
lfingers 7.12502
lthumb 12.0372 72.1811
rfemur -8.34666 3.39854 18.2391
rtibia 24.4352
rfoot -17.2402 -13.8972
rtoes -7.14219
lfemur -10.1009 -0.104546 -17.2364
ltibia 25.1691
lfoot -22.9715 2.5136
ltoes -4.13291
11
root -7.9092 27.3878 -0.270731 -136.436 88.817 -141.234
lowerback -5.2411 -0.418665 -1.75648
upperback 0.667789 -0.460253 0.463473
thorax 3.64674 -0.269009 1.42589
lowerneck -9.95823 0.173094 2.10199
upperneck 19.0947 0.348926 -1.19854
head 7.51186 0.306404 -0.697037
rclavicle -8.10048e-015 -3.67752e-015
rhumerus -30.9909 -9.87633 -83.2222
rradius 21.6565
rwrist 4.40232
rhand -20.4709 45.025
rfingers 7.12502
rthumb 5.88522 15.1267
lclavicle -8.10048e-015 -3.67752e-015
lhumerus -20.8762 15.2661 80.151
lradius 17.1005
lwrist -9.50399
lhand -14.1202 42.3366
lfingers 7.12502
lthumb 12.0132 71.9718
rfemur -8.47589 3.35502 18.2946
rtibia 24.4167
rfoot -17.2083 -13.9168
rtoes -7.39188
lfemur -10.2743 -0.017009 -17.1676
ltibia 25.1829
lfoot -22.8946 2.37058
ltoes -4.0753
